<svg  xmlns="http://www.w3.org/2000/svg" width="393.31mm" height="189.85mm" viewBox="-9 -7 1138 562" xmlns:bx="https://boxy-svg.com">

  <g style="">
    <bx:title>outline</bx:title>
    <path d="M 575.628 538.312 C 575.708 536.882 575.838 535.462 575.848 534.032 C 575.848 530.442 575.848 526.852 575.848 523.222 C 576.205 523.116 576.569 523.036 576.938 522.982 C 579.558 522.852 580.058 522.532 580.768 519.982 C 581.098 518.828 581.299 517.64 581.368 516.442 C 581.908 505.902 582.368 495.362 582.908 484.822 C 583.058 481.712 583.258 478.602 583.428 475.532 C 585.318 475.032 604.918 474.952 607.628 475.462 L 607.628 522.732 L 611.408 523.112 L 611.618 538.312 L 602.978 538.312 L 602.978 530.772 L 584.268 530.772 L 584.268 538.312 L 575.628 538.312 Z M 598.578 522.872 C 599.148 520.552 599.088 485.022 598.528 483.172 L 591.528 483.172 C 591.458 483.752 591.378 484.172 591.348 484.672 C 591.015 491.452 590.681 498.232 590.348 505.012 C 590.178 508.442 590.028 511.872 589.848 515.302 C 589.833 517.971 589.089 520.585 587.698 522.862 L 598.538 522.862 L 598.578 522.872 Z" style="stroke-width: 10px; stroke: rgb(255, 255, 255);"></path>
    <path class="cls-1" d="M 654.105 205.362 L 651.105 206.262 C 644.108 208.342 637.248 210.652 630.218 212.452 C 622.243 214.579 613.972 215.373 605.738 214.802 C 599.408 214.312 593.468 212.722 588.208 209.022 C 587.973 208.886 587.729 208.765 587.478 208.662 L 575.818 217.742 L 574.138 216.482 C 570.888 218.312 567.528 220.142 564.248 222.102 C 563.752 222.578 563.467 223.234 563.458 223.922 C 563.128 228.392 563.018 232.872 562.588 237.322 C 560.768 256.172 557.378 274.682 550.128 292.322 C 544.938 304.952 538.128 316.512 528.228 326.102 C 521.998 332.162 515.228 337.412 507.028 340.712 C 500.501 343.458 493.319 344.257 486.348 343.012 C 476.478 341.212 470.708 335.432 468.668 325.592 C 467.543 319.525 467.434 313.314 468.348 307.212 C 470.076 293.689 474.768 280.713 482.088 269.212 C 487.858 260.022 495.418 252.472 503.648 245.532 C 511.375 239.06 519.545 233.135 528.098 227.802 C 529.611 227.047 530.445 225.386 530.148 223.722 C 529.638 218.062 529.228 212.382 527.638 206.912 C 526.95 204.457 525.941 202.103 524.638 199.912 C 520.538 193.212 514.568 190.912 506.948 192.912 C 501.598 194.292 496.948 197.022 492.428 200.142 C 483.278 206.522 476.748 215.142 471.848 225.002 C 467.918 232.932 465.428 241.342 463.318 249.902 C 456.568 277.302 450.518 304.902 445.598 332.652 C 442.688 349.102 439.998 365.602 438.208 382.212 C 436.755 395.719 435.471 409.249 434.358 422.802 C 433.101 438.993 432.667 455.237 433.058 471.472 C 433.366 489.214 434.823 506.918 437.418 524.472 C 437.918 527.802 436.948 529.372 433.558 529.732 C 431.019 529.984 428.458 529.879 425.948 529.422 C 416.158 527.672 406.838 524.282 397.548 520.852 C 397.29 520.698 397.051 520.513 396.838 520.302 L 439.208 159.092 C 450.208 160.892 460.868 162.872 471.788 164.782 L 474.458 183.872 C 475.358 182.872 475.918 182.212 476.458 181.562 C 483.098 173.526 491.096 166.716 500.088 161.442 C 506.798 157.512 513.988 154.882 521.838 154.722 C 525.347 154.748 528.85 154.996 532.328 155.462 C 533.426 155.67 534.481 156.062 535.448 156.622 C 542.591 160.159 548.532 165.725 552.528 172.622 C 556.535 179.471 559.282 186.983 560.638 194.802 C 561.418 198.962 561.888 203.182 562.508 207.372 C 562.568 207.752 562.628 208.142 562.728 208.742 C 563.438 208.512 564.028 208.352 564.588 208.132 C 567.588 206.962 570.588 205.812 573.478 204.552 C 574.343 204.182 575.12 203.633 575.758 202.942 C 576.878 201.702 577.818 200.292 578.858 198.942 C 579.478 198.302 579.662 197.357 579.328 196.532 C 576.698 189.372 576.608 181.942 577.258 174.532 C 577.802 167.107 579.374 159.794 581.928 152.802 C 583.862 147.352 587.035 142.426 591.198 138.412 C 593.449 136.11 596.3 134.485 599.428 133.722 C 606.648 132.242 612.558 134.722 617.078 140.282 C 621.228 145.412 622.658 151.532 622.368 158.052 C 622.256 159.807 622.016 161.552 621.648 163.272 C 621.038 167.155 619.394 170.803 616.888 173.832 C 614.278 176.832 611.968 180.112 609.508 183.282 C 615.798 187.002 634.718 187.282 647.128 181.442 C 659.325 175.742 667.315 166.062 673.315 154.262 C 673.855 154.425 674.385 154.629 674.895 154.872 C 678.955 157.165 682.425 160.382 685.005 164.262 C 688.375 169.382 688.375 174.422 685.205 179.792 C 683.055 183.633 681.225 187.647 679.735 191.792 C 674.055 206.612 670.235 221.972 667.215 237.522 C 665.075 247.946 663.985 258.56 663.965 269.202 C 663.875 277.139 665.145 285.032 667.745 292.532 C 668.725 295.314 670.035 297.97 671.645 300.442 C 674.725 305.012 679.115 306.332 684.245 304.382 C 686.555 303.48 688.745 302.305 690.765 300.882 C 700.955 293.882 707.865 284.212 712.455 272.832 C 713.455 270.332 714.315 267.762 715.355 264.902 L 720.355 268.642 C 716.555 287.044 709.125 304.506 698.505 320.012 C 695.395 324.483 691.655 328.484 687.405 331.892 C 677.615 339.602 666.725 341.452 654.865 337.892 C 653.265 337.412 651.715 336.762 650.145 336.172 C 641.418 332.892 636.058 326.532 633.308 317.762 C 631.96 313.319 631.183 308.722 630.998 304.082 C 630.606 295.204 631.277 286.311 632.998 277.592 C 636.799 257.405 642.046 237.517 648.695 218.082 C 650.015 214.242 651.905 210.602 653.525 206.872 C 653.645 206.552 653.775 206.192 654.105 205.362 Z M 529.848 244.152 C 528.848 244.722 528.458 244.912 528.108 245.152 C 519.813 251.289 512.074 258.142 504.978 265.632 C 494.964 276.135 488.645 289.616 486.978 304.032 C 486.318 309.402 486.418 314.732 488.628 319.822 C 490.998 325.262 494.228 326.262 498.938 322.722 C 501.212 320.964 503.303 318.981 505.178 316.802 C 513.528 307.164 519.704 295.84 523.288 283.602 C 526.177 273.95 528.12 264.04 529.088 254.012 C 529.408 251.012 529.568 247.862 529.848 244.152 Z" style="stroke-width: 10px; stroke: rgb(255, 255, 255);"></path>
    <path class="cls-1" d="M 117.318 219.272 L 109.018 361.852 C 106.435 362.232 103.803 362.085 101.278 361.422 C 93.494 360.076 86.779 355.187 83.108 348.192 C 82.378 346.862 81.778 345.462 81.108 344.092 C 79.677 341.04 79.146 337.644 79.578 334.302 C 79.998 330.652 80.028 326.962 80.208 323.302 C 80.761 311.642 81.311 299.975 81.858 288.302 C 82.658 271.769 83.471 255.235 84.298 238.702 C 84.678 231.112 85.118 223.532 85.518 215.942 C 85.518 215.152 85.518 214.362 85.518 213.432 C 84.328 213.162 83.248 212.952 82.178 212.682 C 73.365 210.334 65.062 206.378 57.688 201.012 C 56.688 200.302 55.558 199.572 55.538 197.702 C 60.718 197.982 65.748 198.542 70.788 198.952 C 75.828 199.362 80.968 199.672 86.378 200.052 L 88.378 158.922 C 87.648 158.836 86.913 158.789 86.178 158.782 C 76.985 159.2 67.772 158.809 58.648 157.612 C 49.099 156.539 39.787 153.922 31.078 149.862 C 14.618 141.862 4.948 128.722 1.708 110.862 C -0.462 99.911 -0.121 88.611 2.708 77.812 C 6.238 64.942 13.458 54.362 23.208 45.412 C 32.958 36.462 44.208 29.772 56.208 24.352 C 73.885 16.278 92.478 10.381 111.578 6.792 C 121.173 5.003 130.908 4.069 140.668 4.002 C 155.546 3.84 170.421 4.588 185.208 6.242 C 199.758 7.962 214.108 10.652 227.918 15.742 C 240.718 20.462 252.478 26.972 262.668 36.132 C 275.403 47.524 284.47 62.441 288.718 78.992 C 294.65 100.793 294.953 123.742 289.598 145.692 C 282.668 174.312 265.378 194.532 238.908 207.092 C 227.139 212.514 214.72 216.396 201.958 218.642 C 188.202 221.236 174.245 222.612 160.248 222.752 C 150.557 222.898 140.867 222.374 131.248 221.182 C 127.048 220.642 122.858 220.022 118.658 219.452 C 118.408 219.312 118.008 219.312 117.318 219.272 Z M 119.538 200.742 C 120.938 200.742 121.958 200.742 122.978 200.742 C 132.328 200.362 141.678 200.072 150.978 199.532 C 162.79 198.853 174.528 197.225 186.078 194.662 C 197.438 192.142 208.398 188.522 218.568 182.722 C 239.968 170.522 251.948 152.042 254.928 127.722 C 256.058 117.933 255.779 108.032 254.098 98.322 C 251.668 83.582 246.048 70.232 236.458 58.712 C 223.048 42.602 205.908 32.242 185.848 26.542 C 172.848 22.832 159.458 21.742 145.978 21.892 C 134.222 22.005 122.494 23.062 110.908 25.052 C 94.984 27.72 79.399 32.116 64.428 38.162 C 53.868 42.482 43.928 47.912 35.268 55.452 C 28.418 61.452 22.848 68.372 19.448 76.862 C 16.448 84.442 14.618 92.302 15.858 100.522 C 17.538 111.602 22.108 121.282 30.308 129.092 C 36.433 134.758 43.665 139.096 51.548 141.832 C 62.818 145.992 74.548 147.742 86.488 148.572 C 87.212 148.58 87.937 148.547 88.658 148.472 C 88.748 147.772 88.868 147.232 88.888 146.682 C 89.688 131.269 90.481 115.855 91.268 100.442 C 91.898 88.222 92.608 76.012 93.098 63.792 C 93.169 60.887 94.321 58.113 96.328 56.012 C 100.476 51.496 106.086 48.592 112.168 47.812 C 119.298 46.422 126.488 46.652 133.688 47.002 C 134.608 47.002 135.518 47.232 136.548 47.362 C 134.038 54.872 133.018 62.362 132.068 69.922 C 130.628 81.342 129.278 92.772 128.068 104.222 C 126.658 118.062 125.468 131.922 124.198 145.772 C 124.198 146.302 124.198 146.832 124.198 147.652 C 127.738 147.232 131.068 146.922 134.358 146.442 C 137.278 146.012 140.168 145.342 143.078 144.872 C 143.755 144.691 144.477 144.792 145.078 145.152 C 146.488 146.702 147.138 149.432 144.028 150.482 C 143.496 150.648 142.955 150.785 142.408 150.892 L 125.328 154.642 C 123.208 155.112 123.198 155.122 123.018 157.282 C 122.808 159.832 122.638 162.382 122.428 164.932 C 121.695 173.859 120.961 182.782 120.228 191.702 C 119.978 194.572 119.788 197.432 119.548 200.742 L 119.538 200.742 Z" style="stroke-linecap: round; stroke-linejoin: round; stroke-width: 10px; stroke: rgb(255, 255, 255);"></path>
    <path class="cls-1" d="M 367.648 186.732 C 366.84 187.033 366.002 187.245 365.148 187.362 C 360.358 187.562 355.558 187.662 350.768 187.822 C 341.287 188.04 332.026 190.714 323.888 195.582 C 317.116 199.741 311.269 205.245 306.708 211.752 C 300.088 220.942 295.708 231.212 292.438 241.972 C 289.217 252.862 286.925 264.005 285.588 275.282 C 284.49 282.561 284.051 289.924 284.278 297.282 C 284.466 300.951 284.948 304.6 285.718 308.192 C 286.274 310.521 287.206 312.743 288.478 314.772 C 290.688 318.402 294.198 319.772 298.358 319.292 C 303.556 318.696 308.48 316.64 312.558 313.362 C 320.875 307.034 327.49 298.739 331.808 289.222 C 335.571 280.657 338.452 271.731 340.408 262.582 C 343.361 249.393 345.499 236.034 346.808 222.582 C 347.618 214.582 348.288 206.662 349.028 198.702 C 349.028 198.232 349.168 197.762 349.268 197.112 L 373.008 204.012 C 373.008 204.722 373.008 205.432 373.008 206.122 C 372.308 215.372 371.588 224.622 370.898 233.862 C 370.328 241.512 369.718 249.172 369.238 256.862 C 368.758 264.552 368.418 272.032 368.018 279.622 C 367.179 291.902 371.12 304.031 379.018 313.472 C 380.228 314.964 381.611 316.306 383.138 317.472 C 386.13 319.933 390.28 320.428 393.768 318.742 C 396.002 317.665 398.097 316.322 400.008 314.742 C 403.282 311.914 406.162 308.658 408.568 305.062 L 410.188 302.792 L 412.398 304.452 C 410.398 311.882 407.728 318.862 403.148 324.972 C 398.006 332.188 389.89 336.708 381.048 337.282 C 377.144 337.673 373.203 337.426 369.378 336.552 C 363.306 335.105 358.07 331.278 354.848 325.932 C 351.96 321.119 350.05 315.784 349.228 310.232 C 348.046 303.935 347.677 297.513 348.128 291.122 C 348.218 290.305 348.072 289.479 347.708 288.742 C 347.318 289.482 346.908 290.222 346.538 290.972 C 340.776 302.863 333.495 313.955 324.878 323.972 C 321.376 328.133 317.341 331.815 312.878 334.922 C 307.168 338.782 301.028 341.172 293.968 340.562 C 290.694 340.283 287.512 339.337 284.618 337.782 C 264.408 327.012 251.758 310.592 247.408 288.082 C 243.598 268.442 245.678 249.212 252.238 230.452 C 259.013 210.546 269.945 192.309 284.308 176.952 C 292.658 168.102 302.388 161.222 314.168 157.602 C 328.958 153.062 342.108 155.912 353.468 166.502 C 359.007 171.842 363.671 178.021 367.288 184.812 C 367.473 185.163 367.623 185.532 367.738 185.912 C 367.745 186.188 367.714 186.464 367.648 186.732 Z" style="stroke-width: 10px; stroke: rgb(255, 255, 255);"></path>
    <path d="M 616.768 475.332 L 624.038 475.332 L 624.038 508.692 L 624.488 508.762 C 626.088 503.212 627.658 497.642 629.318 492.112 C 630.978 486.582 632.758 480.982 634.518 475.332 L 643.638 475.332 C 644.168 477.282 644.218 528.242 643.698 530.492 L 636.268 530.492 L 636.268 493.412 L 635.838 493.412 L 625.408 530.472 L 616.908 530.472 C 616.408 528.862 616.238 478.492 616.768 475.332 Z" style="stroke-width: 10px; stroke: rgb(255, 255, 255);"></path>
    <path d="M 595.638 421.532 C 597.228 416.022 598.778 410.532 600.428 405.012 C 602.078 399.492 603.788 394.182 605.488 388.692 L 614.788 388.692 L 614.788 443.792 C 613.588 443.792 612.428 443.912 611.258 443.932 C 610.088 443.952 608.868 443.932 607.358 443.932 C 607.358 440.662 607.358 437.572 607.308 434.492 C 607.258 431.412 607.308 428.252 607.308 425.132 L 607.308 406.572 L 606.878 406.572 L 596.408 443.782 L 587.698 443.782 L 587.698 388.722 C 588.408 388.662 589.028 388.582 589.648 388.572 C 591.388 388.572 593.128 388.572 595.128 388.572 L 595.128 421.572 L 595.638 421.532 Z" style="stroke-width: 10px; stroke: rgb(255, 255, 255);"></path>
    <path d="M 675.535 530.502 L 667.235 530.502 C 667.145 526.722 667.235 522.992 667.235 519.272 C 667.235 515.552 667.235 511.952 667.235 508.182 C 666.355 508.102 665.735 508.032 665.125 508.002 C 659.435 507.702 658.515 510.472 658.345 514.522 C 658.185 518.272 658.345 522.042 658.255 525.792 C 658.255 527.292 657.975 528.792 657.815 530.422 L 649.165 530.422 C 650.165 525.162 649.555 519.902 649.765 514.662 C 649.815 513.225 649.985 511.793 650.255 510.382 C 650.775 507.403 652.685 504.853 655.405 503.532 C 650.655 500.792 649.835 496.402 649.845 491.692 C 649.815 489.295 649.915 486.898 650.145 484.512 C 650.715 479.592 653.645 476.362 658.475 475.592 C 664.095 474.702 669.775 475.282 675.355 475.162 C 675.845 477.122 676.015 526.582 675.535 530.502 Z M 666.645 500.212 C 667.305 498.372 667.415 485.752 666.825 483.092 C 665.215 483.092 663.545 482.992 661.905 483.092 C 660.225 483.114 658.845 484.418 658.725 486.092 C 658.515 489.579 658.515 493.075 658.725 496.562 C 658.855 498.418 660.365 499.874 662.225 499.922 C 663.695 500.162 665.205 500.142 666.645 500.212 Z" style="stroke-width: 10px; stroke: rgb(255, 255, 255);"></path>
    <path d="M 744.535 443.932 L 736.045 443.932 L 736.045 420.342 L 725.985 420.342 C 725.805 422.832 725.915 425.342 725.895 427.892 C 725.875 430.442 725.895 433.172 725.895 435.812 L 725.895 443.712 C 723.095 443.987 720.275 444.034 717.465 443.852 L 717.465 388.652 C 720.175 388.502 722.845 388.572 725.785 388.652 C 726.055 396.492 725.785 404.212 725.945 411.882 C 727.695 412.522 733.035 412.632 735.945 412.062 L 735.945 388.752 L 744.555 388.752 L 744.555 443.932 L 744.535 443.932 Z" style="stroke-width: 10px; stroke: rgb(255, 255, 255);"></path>
    <path d="M 621.458 388.702 L 629.838 388.702 L 629.838 412.272 C 633.288 412.432 636.508 412.412 639.968 412.272 L 639.968 388.722 L 648.238 388.722 C 648.725 390.422 648.925 439.372 648.458 443.482 C 645.677 444.085 642.804 444.126 640.008 443.602 L 640.008 420.342 L 629.938 420.342 C 629.778 428.072 629.938 435.852 629.838 443.762 L 621.458 443.762 L 621.458 388.702 Z" style="stroke-width: 10px; stroke: rgb(255, 255, 255);"></path>
    <path d="M 549.408 444.082 L 549.408 436.342 L 550.888 436.132 C 553.318 435.812 554.278 434.932 554.498 432.462 C 554.718 429.992 554.818 427.512 554.898 425.042 C 555.278 413.615 555.648 402.189 556.008 390.762 C 556.008 390.132 556.098 389.512 556.148 388.762 L 580.148 388.762 C 580.718 390.392 580.968 439.542 580.368 443.822 C 577.564 444.004 574.752 444.004 571.948 443.822 L 571.948 396.522 L 564.298 396.522 C 564.218 397.172 564.108 397.782 564.088 398.392 C 563.768 408.942 563.518 419.492 563.088 430.042 C 563.005 432.433 562.642 434.805 562.008 437.112 C 560.938 440.942 558.168 443.112 554.258 443.682 C 552.758 443.932 551.178 443.952 549.408 444.082 Z" style="stroke-width: 10px; stroke: rgb(255, 255, 255);"></path>
    <path d="M 515.188 443.912 C 512.368 443.912 509.898 443.912 507.438 443.912 C 506.438 443.912 506.148 443.162 505.858 442.402 C 504.525 438.822 503.155 435.242 501.748 431.662 C 500.748 429.122 499.818 426.592 498.838 424.052 C 498.618 423.482 498.338 422.942 497.938 422.052 C 496.528 424.422 495.028 426.302 495.108 428.992 C 495.228 432.992 495.108 436.992 495.108 440.992 C 495.108 441.852 495.108 442.712 495.108 443.742 L 486.708 443.742 L 486.708 388.692 L 495.008 388.692 C 495.258 391.192 495.098 393.692 495.128 396.232 C 495.158 398.772 495.128 401.352 495.128 403.902 C 495.128 406.452 495.128 408.962 495.128 411.412 C 495.275 411.476 495.43 411.523 495.588 411.552 C 495.669 411.549 495.745 411.513 495.798 411.452 C 499.408 403.882 503.008 396.322 506.648 388.672 L 515.098 388.672 C 514.688 389.572 514.368 390.342 513.998 391.092 C 510.728 397.762 507.488 404.452 504.148 411.092 C 503.396 412.396 503.321 413.983 503.948 415.352 C 507.338 423.712 510.598 432.132 513.948 440.532 C 514.288 441.492 514.638 442.462 515.188 443.912 Z" style="stroke-width: 10px; stroke: rgb(255, 255, 255);"></path>
    <path d="M 683.205 443.762 L 674.635 443.762 L 673.035 434.012 L 662.305 434.012 L 660.725 443.782 L 652.925 443.782 L 661.715 388.712 L 674.405 388.712 L 683.205 443.762 Z M 667.915 399.762 L 667.345 399.762 L 663.345 426.322 L 671.845 426.322 L 667.915 399.762 Z" style="stroke-width: 10px; stroke: rgb(255, 255, 255);"></path>
    <path d="M 503.648 493.742 C 503.648 492.372 503.648 491.272 503.648 490.172 C 503.683 488.894 503.636 487.614 503.508 486.342 C 503.108 483.632 501.578 482.342 498.968 482.342 C 496.358 482.342 494.908 483.732 494.548 486.442 C 494.474 487.159 494.447 487.881 494.468 488.602 C 494.468 498.122 494.468 507.642 494.468 517.162 C 494.444 517.961 494.488 518.76 494.598 519.552 C 495.164 522.977 499.225 524.506 501.909 522.303 C 502.711 521.644 503.262 520.729 503.468 519.712 C 503.615 518.847 503.678 517.969 503.658 517.092 C 503.658 514.852 503.658 512.622 503.658 510.092 C 506.278 509.922 508.798 510.022 511.468 510.022 C 511.605 510.556 511.692 511.102 511.728 511.652 C 511.773 514.925 511.619 518.198 511.268 521.452 C 510.328 527.452 506.268 530.812 500.198 531.092 C 499.001 531.154 497.802 531.137 496.608 531.042 C 491.801 530.82 487.722 527.443 486.608 522.762 C 486.212 521.379 485.997 519.95 485.968 518.512 C 485.918 508.112 485.868 497.712 485.968 487.322 C 486.066 485.266 486.498 483.239 487.248 481.322 C 488.294 478.388 490.705 476.149 493.708 475.322 C 497.004 474.26 500.551 474.26 503.848 475.322 C 507.132 476.306 509.716 478.852 510.748 482.122 C 511.84 485.896 512.062 489.869 511.398 493.742 L 503.648 493.742 Z" style="stroke-width: 10px; stroke: rgb(255, 255, 255);"></path>
    <path d="M 696.005 423.012 L 696.005 443.682 L 687.655 443.682 L 687.655 388.882 C 687.765 388.762 687.895 388.669 688.045 388.612 C 692.755 388.612 697.475 388.372 702.175 388.612 C 708.345 388.942 712.335 392.732 712.835 398.872 C 713.195 403.325 713.195 407.799 712.835 412.252 C 712.405 419.062 708.135 422.792 701.405 423.012 C 699.695 423.112 698.035 423.012 696.005 423.012 Z M 696.125 415.112 C 696.845 415.182 697.305 415.272 697.775 415.272 C 698.735 415.325 699.695 415.325 700.655 415.272 C 703.025 415.042 704.185 414.082 704.385 411.672 C 704.625 408.672 704.585 405.612 704.595 402.572 C 704.605 401.455 704.495 400.339 704.285 399.242 C 704.125 397.923 703.135 396.854 701.835 396.582 C 699.965 396.147 698.015 396.147 696.135 396.582 L 696.135 415.152 L 696.125 415.112 Z" style="stroke-width: 10px; stroke: rgb(255, 255, 255);"></path>
    <path d="M 558.878 506.202 L 564.878 475.322 L 573.708 475.322 C 573.693 475.958 573.636 476.593 573.538 477.222 C 570.511 490.702 567.471 504.175 564.418 517.642 C 563.977 519.505 563.399 521.334 562.688 523.112 C 561.253 527.143 557.633 529.993 553.378 530.442 C 551.498 530.712 549.578 530.642 547.458 530.742 L 547.458 523.012 L 549.868 523.012 C 553.648 523.012 555.448 519.302 554.588 516.352 C 550.868 503.632 547.348 490.852 543.758 478.092 C 543.528 477.262 543.338 476.422 543.078 475.372 L 551.588 475.372 L 558.878 506.202 Z" style="stroke-width: 10px; stroke: rgb(255, 255, 255);"></path>
    <path d="M 517.018 388.662 L 525.408 388.662 C 528.068 398.762 530.648 408.862 532.818 419.152 C 534.298 414.232 534.628 409.152 535.768 404.152 C 536.908 399.152 537.888 394.002 538.978 388.762 L 547.738 388.762 C 547.698 389.355 547.628 389.946 547.528 390.532 C 544.521 403.939 541.501 417.339 538.468 430.732 C 537.983 432.837 537.313 434.894 536.468 436.882 C 534.96 440.7 531.451 443.36 527.368 443.782 C 525.376 444.207 523.321 444.238 521.318 443.872 L 521.318 436.622 C 522.318 436.542 523.138 436.502 523.998 436.382 C 527.838 435.862 529.508 433.312 528.458 429.552 C 526.218 421.552 523.968 413.552 521.708 405.552 C 520.281 400.479 518.858 395.402 517.438 390.322 C 517.298 389.892 517.198 389.432 517.018 388.662 Z" style="stroke-width: 10px; stroke: rgb(255, 255, 255);"></path>
    <path d="M 514.838 475.322 L 541.338 475.322 L 541.338 483.012 L 532.408 483.012 L 532.408 530.472 C 531.408 530.522 530.728 530.592 530.028 530.602 C 528.028 530.602 526.028 530.602 523.878 530.602 L 523.878 483.112 L 514.878 483.112 L 514.878 475.332 L 514.838 475.322 Z" style="stroke-width: 10px; stroke: rgb(255, 255, 255);"></path>
    <path class="cls-1" d="M 855.855 269.162 L 842.175 271.672 C 842.065 272.121 841.985 272.58 841.935 273.042 C 841.615 281.592 841.195 290.142 841.035 298.702 C 840.705 316.532 840.525 334.372 840.275 352.202 C 840.275 353.042 840.175 353.882 840.105 355.032 C 839.025 354.442 838.255 354.032 837.525 353.622 C 830.185 349.232 822.895 344.752 815.525 340.482 C 813.795 339.643 812.755 337.82 812.925 335.902 C 812.805 315.432 812.445 294.952 812.495 274.482 C 812.495 261.052 812.985 247.612 813.495 234.182 C 813.975 221.082 814.735 207.982 815.385 194.882 C 815.485 192.882 815.655 190.882 815.835 188.432 C 812.495 189.932 809.745 191.632 806.835 193.052 C 803.925 194.472 800.975 195.972 798.005 197.362 C 795.035 198.752 792.005 200.042 788.715 201.532 C 788.285 199.198 787.985 196.841 787.815 194.472 C 788.745 193.872 789.595 193.302 790.465 192.762 C 798.535 187.762 806.585 182.652 814.685 177.672 C 816.005 176.935 816.815 175.539 816.795 174.032 C 817.795 162.242 818.795 150.452 819.955 138.682 C 820.955 128.342 822.095 118.012 823.465 107.682 C 826.255 86.682 829.925 65.832 836.815 45.682 C 839.155 38.704 842.165 31.972 845.815 25.582 C 851.485 15.792 859.735 8.782 869.515 3.422 C 872.935 1.477 876.755 0.347 880.685 0.122 C 885.295 -0.143 889.825 1.441 893.255 4.522 C 896.375 7.302 898.855 10.71 900.555 14.522 C 903.135 20.219 904.755 26.3 905.355 32.522 C 906.775 44.762 905.925 56.942 904.465 69.122 C 903.025 81.525 899.865 93.668 895.085 105.202 C 888.005 122.202 877.755 137.022 865.085 150.292 C 858.805 156.901 852.035 163.035 844.835 168.642 C 843.585 169.497 842.935 170.994 843.165 172.492 C 843.505 177.272 843.615 182.072 843.805 186.872 C 844.175 196.139 844.545 205.409 844.905 214.682 C 844.915 215.206 845.135 215.705 845.505 216.072 C 845.825 215.392 846.165 214.722 846.505 214.072 C 853.465 197.971 862.615 182.912 873.695 169.322 C 878.635 163.322 884.135 157.842 890.955 153.902 C 895.745 150.951 901.345 149.583 906.955 149.992 C 910.635 150.316 914.185 151.505 917.315 153.462 C 923.525 157.195 928.765 162.333 932.615 168.462 C 937.865 176.902 938.715 185.972 936.265 195.462 C 934.815 200.79 932.635 205.894 929.795 210.632 C 921.245 225.422 909.665 237.462 895.845 247.352 C 889.945 251.572 883.675 255.352 877.445 259.062 C 875.925 259.776 875.035 261.391 875.235 263.062 C 875.455 274.274 877.425 285.383 881.085 295.982 C 882.745 300.732 884.425 305.502 886.535 310.052 C 894.725 327.762 907.765 340.682 925.665 348.502 C 940.255 355.014 956.135 358.093 972.095 357.502 C 976.905 357.312 981.635 356.297 986.095 354.502 C 990.355 352.826 994.185 350.211 997.285 346.852 C 998.605 345.339 1000.07 343.953 1001.63 342.712 L 1000.4 344.512 C 991.835 357.493 981.045 368.857 968.515 378.082 C 960.975 383.562 953.025 388.252 944.055 391.032 C 929.025 395.699 915.165 393.365 902.485 384.032 C 897.925 380.638 893.785 376.71 890.155 372.332 C 889.555 371.587 889.005 370.799 888.515 369.972 C 878.675 354.018 871.575 336.525 867.515 318.222 C 864.025 302.462 860.145 286.792 856.435 271.092 C 856.285 270.412 856.035 269.752 855.855 269.162 Z M 843.105 152.602 L 843.655 152.802 C 844.205 152.182 844.775 151.572 845.295 150.932 C 855.655 138.112 863.095 123.672 869.015 108.382 C 873.405 97.032 876.525 85.302 879.615 73.552 C 881.935 64.732 883.945 55.862 884.615 46.732 C 884.985 41.662 884.905 36.632 882.815 31.882 C 880.985 27.732 878.095 26.942 874.355 29.492 C 873.305 30.205 872.345 31.052 871.505 32.012 C 870.535 33.176 869.655 34.416 868.875 35.722 C 864.915 42.311 861.535 49.234 858.775 56.412 C 850.245 78.292 846.315 101.162 844.435 124.412 C 843.745 132.932 843.535 141.502 843.115 150.042 C 843.075 150.912 843.105 151.762 843.105 152.602 Z M 852.645 243.932 C 853.245 243.963 853.845 243.963 854.445 243.932 C 857.955 243.511 861.355 242.497 864.515 240.932 C 869.735 238.293 874.495 234.817 878.585 230.642 C 884.275 225.002 889.325 218.766 893.675 212.042 C 898.475 204.732 902.545 197.042 904.735 188.492 C 905.445 185.946 905.715 183.298 905.525 180.662 C 905.395 178.382 904.135 176.319 902.155 175.172 C 899.915 173.684 897.045 173.49 894.615 174.662 C 891.675 175.964 889.085 177.945 887.055 180.442 C 883.825 184.195 880.825 188.135 878.055 192.242 C 867.925 207.952 860.055 224.812 853.115 242.152 C 852.925 242.735 852.765 243.329 852.645 243.932 Z" style="stroke-width: 10px; stroke: rgb(255, 255, 255);"></path>
    <path class="cls-1" d="M 1052.4 197.132 L 1076.23 203.992 C 1076.15 205.512 1076.12 206.932 1076.01 208.352 C 1075.44 215.602 1074.83 222.852 1074.3 230.112 C 1073.36 243.272 1072.38 256.432 1071.6 269.602 C 1071.19 275.343 1071.12 281.102 1071.37 286.852 C 1071.95 297.532 1076.27 306.792 1083.31 314.772 C 1085.99 317.772 1089.23 319.882 1093.57 319.522 C 1096.07 319.34 1098.44 318.394 1100.38 316.812 C 1103.09 314.58 1105.64 312.179 1108.05 309.622 C 1109.94 307.622 1111.51 305.242 1113.2 303.052 C 1115.29 304.052 1115.49 304.142 1114.98 306.052 C 1112.33 315.682 1108.36 324.592 1100.36 331.052 C 1095.89 334.623 1090.45 336.762 1084.74 337.192 C 1081.01 337.608 1077.23 337.46 1073.54 336.752 C 1066.77 335.434 1060.91 331.207 1057.54 325.192 C 1054.94 320.671 1053.21 315.711 1052.42 310.562 C 1051.14 304.038 1050.77 297.37 1051.29 290.742 C 1051.37 290.028 1051.23 289.306 1050.91 288.662 C 1050.56 289.302 1050.16 289.922 1049.85 290.592 C 1044.97 300.674 1039.03 310.203 1032.11 319.012 C 1028.53 323.73 1024.44 328.048 1019.93 331.892 C 1016.3 335.039 1012.13 337.506 1007.62 339.172 C 1001.24 341.573 994.135 341.114 988.115 337.912 C 970.595 328.752 958.305 315.042 952.525 295.912 C 949.265 284.928 948.065 273.432 949.005 262.012 C 951.455 229.412 965.375 201.902 986.705 177.792 C 993.385 170.183 1001.63 164.117 1010.88 160.012 C 1016.54 157.389 1022.65 155.878 1028.88 155.562 C 1036.46 155.263 1043.93 157.363 1050.24 161.562 C 1055.15 164.775 1059.44 168.839 1062.91 173.562 C 1065.44 176.952 1067.65 180.562 1069.97 184.122 C 1070.35 184.769 1070.68 185.437 1070.97 186.122 C 1070.51 187.069 1069.47 187.608 1068.42 187.462 C 1064.67 187.622 1060.91 187.862 1057.16 187.852 C 1049.15 187.707 1041.18 189.197 1033.77 192.232 C 1023.51 196.562 1015.54 203.642 1009.22 212.672 C 1002.88 221.702 998.705 231.672 995.525 242.132 C 992.315 253.027 990.025 264.173 988.685 275.452 C 987.625 282.493 987.185 289.614 987.385 296.732 C 987.585 300.639 988.075 304.527 988.845 308.362 C 989.365 310.619 990.265 312.773 991.495 314.732 C 993.735 318.462 997.285 319.832 1001.55 319.372 C 1005.96 318.895 1010.15 317.313 1013.77 314.772 C 1022.5 308.733 1029.52 300.528 1034.12 290.962 C 1038.55 281.962 1041.3 272.332 1043.53 262.582 C 1046.49 249.322 1048.64 235.889 1049.93 222.362 C 1050.67 214.962 1051.27 207.552 1051.93 200.152 C 1052.08 199.182 1052.23 198.322 1052.4 197.132 Z" style="stroke-width: 10px; stroke: rgb(255, 255, 255);"></path>
    <path class="cls-1" d="M 793.095 337.162 L 785.345 345.302 C 783.105 344.182 780.915 343.222 778.855 342.042 C 772.225 338.114 766.515 332.812 762.095 326.492 C 754.465 316.012 749.345 304.362 745.675 292.012 C 742.715 281.714 740.745 271.156 739.785 260.482 C 738.755 249.006 738.505 237.472 739.045 225.962 C 739.455 214.935 740.485 203.94 742.145 193.032 C 743.535 184.032 745.145 175.032 746.605 166.032 C 746.705 165.412 746.895 164.792 747.105 163.912 C 749.195 164.072 751.245 164.202 753.285 164.392 C 760.365 165.052 767.435 165.842 774.285 167.792 C 776.045 168.317 777.765 168.959 779.435 169.712 C 780.315 170.109 781.115 170.639 781.825 171.282 C 783.565 172.525 783.885 174.979 782.515 176.622 C 782.435 176.761 782.345 176.891 782.235 177.012 C 776.845 182.482 774.665 189.502 772.755 196.642 C 770.775 204.472 769.355 212.432 768.505 220.462 C 767.005 232.686 766.125 244.978 765.865 257.292 C 765.575 273.662 766.565 289.912 771.415 305.702 C 773.185 311.61 775.725 317.254 778.995 322.482 C 782.305 327.794 786.625 332.407 791.705 336.062 C 792.115 336.402 792.485 336.702 793.095 337.162 Z" style="stroke-width: 10px; stroke: rgb(255, 255, 255);"></path>
    <path class="cls-1" d="M 774.755 106.852 C 788.295 106.852 795.385 112.392 797.755 122.532 C 799.925 131.962 797.185 140.262 790.615 147.202 C 787.045 150.972 782.275 152.432 777.195 152.752 C 768.195 153.322 762.195 149.752 758.585 141.472 C 757.465 138.746 756.555 135.934 755.885 133.062 C 755.645 131.74 755.645 130.384 755.885 129.062 C 756.355 125.582 757.385 122.202 758.955 119.062 C 762.905 110.922 769.455 106.902 774.755 106.852 Z" style="stroke-width: 10px; stroke: rgb(255, 255, 255);"></path>
    <path d="M 788.475 416.852 C 784.315 414.362 783.095 410.762 783.005 406.642 C 782.945 404.082 782.905 401.512 783.075 398.972 C 783.485 393.132 786.415 389.972 792.135 388.862 C 797.665 388.463 803.205 388.463 808.725 388.862 L 808.725 443.692 C 805.965 443.975 803.185 444.029 800.415 443.852 C 800.185 441.302 800.325 438.852 800.305 436.412 C 800.285 433.972 800.305 431.412 800.305 428.972 L 800.305 421.542 C 798.505 421.132 796.635 421.173 794.855 421.662 C 793.495 421.984 792.425 423.035 792.065 424.392 C 791.735 425.622 791.545 426.888 791.505 428.162 C 791.425 431.522 791.505 434.882 791.445 438.242 C 791.445 440.052 791.105 441.852 790.915 443.752 L 782.605 443.752 C 782.715 439.372 782.825 435.162 782.925 430.942 C 782.925 429.262 782.925 427.582 783.035 425.942 C 783.305 422.152 784.695 419.012 788.475 416.852 Z M 800.135 413.522 L 800.135 396.522 C 799.705 396.442 799.275 396.385 798.835 396.352 C 797.805 396.3 796.765 396.3 795.725 396.352 C 793.245 396.572 791.865 397.742 791.725 400.262 C 791.515 403.285 791.515 406.319 791.725 409.342 C 791.915 411.972 793.525 413.342 796.145 413.492 C 797.405 413.592 798.655 413.522 800.135 413.522 Z" style="stroke-width: 10px; stroke: rgb(255, 255, 255);"></path>
    <path d="M 770.665 443.822 L 769.085 434.012 L 758.345 434.012 L 756.775 443.732 L 748.975 443.732 L 757.765 388.732 L 770.405 388.732 L 779.215 443.802 C 776.375 444.017 773.515 444.024 770.665 443.822 Z M 767.665 426.352 C 767.665 422.722 764.305 401.222 763.425 399.582 L 759.425 426.352 L 767.655 426.352 L 767.665 426.352 Z" style="stroke-width: 10px; stroke: rgb(255, 255, 255);"></path>
  </g>
  <g style="">
    <bx:title>logo</bx:title>
    <path d="M 575.29 538.17 C 575.37 536.74 575.5 535.32 575.51 533.89 C 575.51 530.3 575.51 526.71 575.51 523.08 C 575.867 522.974 576.231 522.894 576.6 522.84 C 579.22 522.71 579.72 522.39 580.43 519.84 C 580.76 518.686 580.962 517.499 581.03 516.3 C 581.57 505.76 582.03 495.22 582.57 484.68 C 582.72 481.57 582.92 478.46 583.09 475.39 C 584.98 474.89 604.58 474.81 607.29 475.32 L 607.29 522.59 L 611.07 522.97 L 611.28 538.17 L 602.64 538.17 L 602.64 530.63 L 583.93 530.63 L 583.93 538.17 L 575.29 538.17 L 575.29 538.17 Z M 598.24 522.73 C 598.81 520.41 598.75 484.88 598.19 483.03 L 591.19 483.03 C 591.12 483.61 591.04 484.03 591.01 484.53 C 590.677 491.31 590.343 498.09 590.01 504.87 C 589.84 508.3 589.69 511.73 589.51 515.16 C 589.495 517.829 588.751 520.443 587.36 522.72 L 598.2 522.72 L 598.24 522.73 Z" style=""></path>
    <path class="cls-1" d="M 653.77 205.22 L 650.77 206.12 C 643.77 208.2 636.91 210.51 629.88 212.31 C 621.905 214.437 613.634 215.231 605.4 214.66 C 599.07 214.17 593.13 212.58 587.87 208.88 C 587.635 208.744 587.391 208.623 587.14 208.52 L 575.48 217.6 L 573.8 216.34 C 570.55 218.17 567.19 220 563.91 221.96 C 563.414 222.436 563.129 223.092 563.12 223.78 C 562.79 228.25 562.68 232.73 562.25 237.18 C 560.43 256.03 557.04 274.54 549.79 292.18 C 544.6 304.81 537.79 316.37 527.89 325.96 C 521.66 332.02 514.89 337.27 506.69 340.57 C 500.163 343.316 492.981 344.115 486.01 342.87 C 476.14 341.07 470.37 335.29 468.33 325.45 C 467.205 319.383 467.097 313.172 468.01 307.07 C 469.738 293.547 474.43 280.571 481.75 269.07 C 487.52 259.88 495.08 252.33 503.31 245.39 C 511.037 238.918 519.207 232.994 527.76 227.66 C 529.273 226.905 530.108 225.244 529.81 223.58 C 529.3 217.92 528.89 212.24 527.3 206.77 C 526.612 204.315 525.603 201.961 524.3 199.77 C 520.2 193.07 514.23 190.77 506.61 192.77 C 501.26 194.15 496.61 196.88 492.09 200 C 482.94 206.38 476.41 215 471.51 224.86 C 467.58 232.79 465.09 241.2 462.98 249.76 C 456.23 277.16 450.18 304.76 445.26 332.51 C 442.35 348.96 439.66 365.46 437.87 382.07 C 436.417 395.577 435.133 409.107 434.02 422.66 C 432.763 438.851 432.329 455.095 432.72 471.33 C 433.029 489.072 434.485 506.776 437.08 524.33 C 437.58 527.66 436.61 529.23 433.22 529.59 C 430.681 529.842 428.12 529.737 425.61 529.28 C 415.82 527.53 406.5 524.14 397.21 520.71 C 396.952 520.556 396.713 520.371 396.5 520.16 L 438.87 158.95 C 449.87 160.75 460.53 162.73 471.45 164.64 L 474.12 183.73 C 475.02 182.73 475.58 182.07 476.12 181.42 C 482.761 173.384 490.758 166.575 499.75 161.3 C 506.46 157.37 513.65 154.74 521.5 154.58 C 525.009 154.606 528.512 154.854 531.99 155.32 C 533.088 155.528 534.143 155.92 535.11 156.48 C 542.253 160.017 548.194 165.583 552.19 172.48 C 556.197 179.329 558.944 186.841 560.3 194.66 C 561.08 198.82 561.55 203.04 562.17 207.23 C 562.23 207.61 562.29 208 562.39 208.6 C 563.1 208.37 563.69 208.21 564.25 207.99 C 567.25 206.82 570.25 205.67 573.14 204.41 C 574.005 204.04 574.782 203.491 575.42 202.8 C 576.54 201.56 577.48 200.15 578.52 198.8 C 579.14 198.16 579.324 197.216 578.99 196.39 C 576.36 189.23 576.27 181.8 576.92 174.39 C 577.464 166.966 579.036 159.652 581.59 152.66 C 583.524 147.21 586.697 142.284 590.86 138.27 C 593.111 135.968 595.962 134.343 599.09 133.58 C 606.31 132.1 612.22 134.58 616.74 140.14 C 620.89 145.27 622.32 151.39 622.03 157.91 C 621.919 159.665 621.678 161.41 621.31 163.13 C 620.7 167.013 619.056 170.661 616.55 173.69 C 613.94 176.69 611.63 179.97 609.17 183.14 C 615.46 186.86 634.38 187.14 646.79 181.3 C 658.99 175.6 666.98 165.92 672.98 154.12 C 673.521 154.283 674.049 154.487 674.56 154.73 C 678.62 157.023 682.084 160.24 684.67 164.12 C 688.04 169.24 688.04 174.28 684.87 179.65 C 682.716 183.491 680.886 187.505 679.4 191.65 C 673.72 206.47 669.9 221.83 666.88 237.38 C 664.737 247.804 663.648 258.418 663.63 269.06 C 663.532 276.997 664.811 284.89 667.41 292.39 C 668.391 295.172 669.7 297.828 671.31 300.3 C 674.39 304.87 678.78 306.19 683.91 304.24 C 686.216 303.339 688.405 302.163 690.43 300.74 C 700.62 293.74 707.53 284.07 712.12 272.69 C 713.12 270.19 713.98 267.62 715.02 264.76 L 720.02 268.5 C 716.214 286.902 708.786 304.364 698.17 319.87 C 695.058 324.341 691.32 328.342 687.07 331.75 C 677.28 339.46 666.39 341.31 654.53 337.75 C 652.93 337.27 651.38 336.62 649.81 336.03 C 641.08 332.75 635.72 326.39 632.97 317.62 C 631.622 313.177 630.846 308.58 630.66 303.94 C 630.268 295.062 630.939 286.169 632.66 277.45 C 636.461 257.263 641.708 237.375 648.36 217.94 C 649.68 214.1 651.57 210.46 653.19 206.73 C 653.31 206.41 653.44 206.05 653.77 205.22 Z M 529.51 244.01 C 528.51 244.58 528.12 244.77 527.77 245.01 C 519.476 251.147 511.736 258 504.64 265.49 C 494.626 275.993 488.307 289.474 486.64 303.89 C 485.98 309.26 486.08 314.59 488.29 319.68 C 490.66 325.12 493.89 326.12 498.6 322.58 C 500.874 320.822 502.965 318.839 504.84 316.66 C 513.19 307.022 519.367 295.698 522.95 283.46 C 525.839 273.808 527.782 263.898 528.75 253.87 C 529.07 250.87 529.23 247.72 529.51 244.01 Z" style="fill: rgb(227, 30, 30); fill-rule: nonzero;"></path>
    <path class="cls-1" d="M 116.98 219.13 L 108.68 361.71 C 106.097 362.09 103.465 361.943 100.94 361.28 C 93.156 359.934 86.441 355.045 82.77 348.05 C 82.04 346.72 81.44 345.32 80.77 343.95 C 79.339 340.899 78.809 337.502 79.24 334.16 C 79.66 330.51 79.69 326.82 79.87 323.16 C 80.423 311.5 80.973 299.833 81.52 288.16 C 82.32 271.627 83.133 255.093 83.96 238.56 C 84.34 230.97 84.78 223.39 85.18 215.8 C 85.18 215.01 85.18 214.22 85.18 213.29 C 83.99 213.02 82.91 212.81 81.84 212.54 C 73.027 210.192 64.724 206.236 57.35 200.87 C 56.35 200.16 55.22 199.43 55.2 197.56 C 60.38 197.84 65.41 198.4 70.45 198.81 C 75.49 199.22 80.63 199.53 86.04 199.91 L 88.04 158.78 C 87.31 158.694 86.575 158.647 85.84 158.64 C 76.647 159.058 67.435 158.667 58.31 157.47 C 48.761 156.397 39.449 153.78 30.74 149.72 C 14.28 141.72 4.61 128.58 1.37 110.72 C -0.8 99.769 -0.458 88.469 2.37 77.67 C 5.9 64.8 13.12 54.22 22.87 45.27 C 32.62 36.32 43.87 29.63 55.87 24.21 C 73.547 16.136 92.14 10.239 111.24 6.65 C 120.835 4.861 130.57 3.927 140.33 3.86 C 155.208 3.698 170.083 4.446 184.87 6.1 C 199.42 7.82 213.77 10.51 227.58 15.6 C 240.38 20.32 252.14 26.83 262.33 35.99 C 275.065 47.382 284.132 62.299 288.38 78.85 C 294.312 100.651 294.615 123.6 289.26 145.55 C 282.33 174.17 265.04 194.39 238.57 206.95 C 226.801 212.372 214.382 216.254 201.62 218.5 C 187.865 221.094 173.907 222.47 159.91 222.61 C 150.219 222.756 140.529 222.232 130.91 221.04 C 126.71 220.5 122.52 219.88 118.32 219.31 C 118.07 219.17 117.67 219.17 116.98 219.13 Z M 119.2 200.6 C 120.6 200.6 121.62 200.6 122.64 200.6 C 131.99 200.22 141.34 199.93 150.64 199.39 C 162.452 198.711 174.19 197.083 185.74 194.52 C 197.1 192 208.06 188.38 218.23 182.58 C 239.63 170.38 251.61 151.9 254.59 127.58 C 255.72 117.791 255.441 107.89 253.76 98.18 C 251.33 83.44 245.71 70.09 236.12 58.57 C 222.71 42.46 205.57 32.1 185.51 26.4 C 172.51 22.69 159.12 21.6 145.64 21.75 C 133.884 21.864 122.157 22.92 110.57 24.91 C 94.646 27.578 79.061 31.974 64.09 38.02 C 53.53 42.34 43.59 47.77 34.93 55.31 C 28.08 61.31 22.51 68.23 19.11 76.72 C 16.11 84.3 14.28 92.16 15.52 100.38 C 17.2 111.46 21.77 121.14 29.97 128.95 C 36.095 134.616 43.327 138.954 51.21 141.69 C 62.48 145.85 74.21 147.6 86.15 148.43 C 86.875 148.438 87.599 148.405 88.32 148.33 C 88.41 147.63 88.53 147.09 88.55 146.54 C 89.35 131.127 90.143 115.713 90.93 100.3 C 91.56 88.08 92.27 75.87 92.76 63.65 C 92.831 60.745 93.983 57.971 95.99 55.87 C 100.138 51.354 105.748 48.45 111.83 47.67 C 118.96 46.28 126.15 46.51 133.35 46.86 C 134.27 46.86 135.18 47.09 136.21 47.22 C 133.7 54.73 132.68 62.22 131.73 69.78 C 130.29 81.2 128.94 92.63 127.73 104.08 C 126.32 117.92 125.13 131.78 123.86 145.63 C 123.86 146.16 123.86 146.69 123.86 147.51 C 127.4 147.09 130.73 146.78 134.02 146.3 C 136.94 145.87 139.83 145.2 142.74 144.73 C 143.417 144.549 144.139 144.65 144.74 145.01 C 146.15 146.56 146.8 149.29 143.69 150.34 C 143.158 150.506 142.617 150.643 142.07 150.75 L 124.99 154.5 C 122.87 154.97 122.86 154.98 122.68 157.14 C 122.47 159.69 122.3 162.24 122.09 164.79 C 121.357 173.717 120.623 182.64 119.89 191.56 C 119.64 194.43 119.45 197.29 119.21 200.6 L 119.2 200.6 Z" style="stroke-width: 6px; vector-effect: non-scaling-stroke; stroke-linecap: round; stroke-linejoin: round; fill: rgb(227, 30, 30); fill-rule: nonzero;"></path>
    <path class="cls-1" d="M 855.52 269.02 L 841.84 271.53 C 841.723 271.979 841.643 272.438 841.6 272.9 C 841.28 281.45 840.86 290 840.7 298.56 C 840.37 316.39 840.19 334.23 839.94 352.06 C 839.94 352.9 839.84 353.74 839.77 354.89 C 838.69 354.3 837.92 353.89 837.19 353.48 C 829.85 349.09 822.56 344.61 815.19 340.34 C 813.457 339.501 812.422 337.678 812.59 335.76 C 812.47 315.29 812.11 294.81 812.16 274.34 C 812.16 260.91 812.65 247.47 813.16 234.04 C 813.64 220.94 814.4 207.84 815.05 194.74 C 815.15 192.74 815.32 190.74 815.5 188.29 C 812.16 189.79 809.41 191.49 806.5 192.91 C 803.59 194.33 800.64 195.83 797.67 197.22 C 794.7 198.61 791.67 199.9 788.38 201.39 C 787.944 199.056 787.644 196.699 787.48 194.33 C 788.41 193.73 789.26 193.16 790.13 192.62 C 798.2 187.62 806.25 182.51 814.35 177.53 C 815.665 176.793 816.474 175.397 816.46 173.89 C 817.46 162.1 818.46 150.31 819.62 138.54 C 820.62 128.2 821.76 117.87 823.13 107.54 C 825.92 86.54 829.59 65.69 836.48 45.54 C 838.816 38.562 841.83 31.83 845.48 25.44 C 851.15 15.65 859.4 8.64 869.18 3.28 C 872.6 1.335 876.422 0.205 880.35 -0.02 C 884.959 -0.285 889.483 1.299 892.92 4.38 C 896.033 7.16 898.521 10.568 900.22 14.38 C 902.793 20.077 904.414 26.158 905.02 32.38 C 906.44 44.62 905.59 56.8 904.13 68.98 C 902.689 81.383 899.532 93.526 894.75 105.06 C 887.67 122.06 877.42 136.88 864.75 150.15 C 858.464 156.76 851.695 162.893 844.5 168.5 C 843.249 169.355 842.6 170.852 842.83 172.35 C 843.17 177.13 843.28 181.93 843.47 186.73 C 843.837 195.997 844.203 205.267 844.57 214.54 C 844.58 215.064 844.796 215.563 845.17 215.93 C 845.49 215.25 845.83 214.58 846.17 213.93 C 853.124 197.83 862.274 182.77 873.36 169.18 C 878.3 163.18 883.8 157.7 890.62 153.76 C 895.411 150.809 901.008 149.442 906.62 149.85 C 910.299 150.174 913.849 151.363 916.98 153.32 C 923.184 157.053 928.425 162.191 932.28 168.32 C 937.53 176.76 938.38 185.83 935.93 195.32 C 934.475 200.648 932.298 205.752 929.46 210.49 C 920.91 225.28 909.33 237.32 895.51 247.21 C 889.61 251.43 883.34 255.21 877.11 258.92 C 875.585 259.634 874.693 261.249 874.9 262.92 C 875.114 274.132 877.088 285.241 880.75 295.84 C 882.41 300.59 884.09 305.36 886.2 309.91 C 894.39 327.62 907.43 340.54 925.33 348.36 C 939.914 354.873 955.799 357.952 971.76 357.36 C 976.564 357.17 981.3 356.155 985.76 354.36 C 990.018 352.684 993.843 350.069 996.95 346.71 C 998.267 345.197 999.723 343.811 1001.3 342.57 L 1000.07 344.37 C 991.5 357.351 980.704 368.715 968.18 377.94 C 960.64 383.42 952.69 388.11 943.72 390.89 C 928.687 395.557 914.83 393.223 902.15 383.89 C 897.588 380.496 893.448 376.568 889.82 372.19 C 889.215 371.445 888.667 370.657 888.18 369.83 C 878.335 353.876 871.237 336.383 867.18 318.08 C 863.69 302.32 859.81 286.65 856.1 270.95 C 855.95 270.27 855.7 269.61 855.52 269.02 Z M 842.77 152.46 L 843.32 152.66 C 843.87 152.04 844.44 151.43 844.96 150.79 C 855.32 137.97 862.76 123.53 868.68 108.24 C 873.07 96.89 876.19 85.16 879.28 73.41 C 881.6 64.59 883.61 55.72 884.28 46.59 C 884.65 41.52 884.57 36.49 882.48 31.74 C 880.65 27.59 877.76 26.8 874.02 29.35 C 872.965 30.063 872.007 30.91 871.17 31.87 C 870.195 33.034 869.315 34.274 868.54 35.58 C 864.576 42.169 861.197 49.092 858.44 56.27 C 849.91 78.15 845.98 101.02 844.1 124.27 C 843.41 132.79 843.2 141.36 842.78 149.9 C 842.74 150.77 842.77 151.62 842.77 152.46 Z M 852.31 243.79 C 852.91 243.821 853.51 243.821 854.11 243.79 C 857.613 243.369 861.018 242.355 864.18 240.79 C 869.4 238.151 874.153 234.675 878.25 230.5 C 883.933 224.86 888.992 218.624 893.34 211.9 C 898.14 204.59 902.21 196.9 904.4 188.35 C 905.105 185.804 905.372 183.156 905.19 180.52 C 905.061 178.24 903.795 176.177 901.82 175.03 C 899.573 173.542 896.707 173.348 894.28 174.52 C 891.338 175.822 888.747 177.803 886.72 180.3 C 883.49 184.053 880.485 187.993 877.72 192.1 C 867.59 207.81 859.72 224.67 852.78 242.01 C 852.586 242.593 852.429 243.187 852.31 243.79 Z" style="fill: rgb(227, 30, 30); fill-rule: nonzero;"></path>
    <path class="cls-1" d="M 1052.07 196.99 L 1075.9 203.85 C 1075.82 205.37 1075.78 206.79 1075.67 208.21 C 1075.11 215.46 1074.49 222.71 1073.96 229.97 C 1073.02 243.13 1072.04 256.29 1071.26 269.46 C 1070.86 275.201 1070.78 280.96 1071.03 286.71 C 1071.62 297.39 1075.93 306.65 1082.97 314.63 C 1085.66 317.63 1088.9 319.74 1093.23 319.38 C 1095.72 319.198 1098.1 318.252 1100.04 316.67 C 1102.75 314.438 1105.31 312.037 1107.71 309.48 C 1109.61 307.48 1111.17 305.1 1112.87 302.91 C 1114.95 303.91 1115.16 304 1114.65 305.91 C 1111.99 315.54 1108.02 324.45 1100.02 330.91 C 1095.55 334.481 1090.11 336.62 1084.41 337.05 C 1080.67 337.467 1076.89 337.318 1073.2 336.61 C 1066.43 335.292 1060.58 331.065 1057.2 325.05 C 1054.61 320.529 1052.88 315.57 1052.09 310.42 C 1050.81 303.896 1050.42 297.228 1050.95 290.6 C 1051.03 289.886 1050.9 289.164 1050.58 288.52 C 1050.22 289.16 1049.83 289.78 1049.51 290.45 C 1044.63 300.532 1038.69 310.061 1031.77 318.87 C 1028.19 323.588 1024.11 327.906 1019.6 331.75 C 1015.96 334.897 1011.79 337.364 1007.28 339.03 C 1000.9 341.431 993.797 340.972 987.78 337.77 C 970.26 328.61 957.97 314.9 952.19 295.77 C 948.923 284.786 947.729 273.291 948.67 261.87 C 951.12 229.27 965.04 201.76 986.37 177.65 C 993.047 170.042 1001.3 163.975 1010.55 159.87 C 1016.21 157.247 1022.32 155.736 1028.55 155.42 C 1036.12 155.121 1043.6 157.221 1049.91 161.42 C 1054.82 164.633 1059.11 168.697 1062.58 173.42 C 1065.11 176.81 1067.32 180.42 1069.64 183.98 C 1070.01 184.627 1070.35 185.295 1070.64 185.98 C 1070.16 186.927 1069.14 187.467 1068.09 187.32 C 1064.34 187.48 1060.58 187.72 1056.83 187.71 C 1048.81 187.565 1040.85 189.055 1033.43 192.09 C 1023.17 196.42 1015.21 203.5 1008.88 212.53 C 1002.55 221.56 998.37 231.53 995.19 241.99 C 991.977 252.885 989.689 264.031 988.35 275.31 C 987.287 282.351 986.852 289.472 987.05 296.59 C 987.25 300.497 987.738 304.385 988.51 308.22 C 989.029 310.477 989.925 312.631 991.16 314.59 C 993.4 318.32 996.95 319.69 1001.22 319.23 C 1005.62 318.753 1009.82 317.171 1013.44 314.63 C 1022.17 308.591 1029.18 300.386 1033.78 290.82 C 1038.21 281.82 1040.96 272.19 1043.19 262.44 C 1046.16 249.18 1048.3 235.747 1049.6 222.22 C 1050.34 214.82 1050.93 207.41 1051.6 200.01 C 1051.74 199.04 1051.9 198.18 1052.07 196.99 Z" style="fill: rgb(227, 30, 30); fill-rule: nonzero;"></path>
    <path class="cls-1" d="M 367.31 186.59 C 366.502 186.891 365.664 187.103 364.81 187.22 C 360.02 187.42 355.22 187.52 350.43 187.68 C 340.95 187.898 331.688 190.572 323.55 195.44 C 316.779 199.599 310.932 205.103 306.37 211.61 C 299.75 220.8 295.37 231.07 292.1 241.83 C 288.879 252.72 286.588 263.863 285.25 275.14 C 284.152 282.419 283.714 289.782 283.94 297.14 C 284.128 300.809 284.61 304.458 285.38 308.05 C 285.936 310.379 286.868 312.601 288.14 314.63 C 290.35 318.26 293.86 319.63 298.02 319.15 C 303.218 318.554 308.142 316.498 312.22 313.22 C 320.537 306.892 327.152 298.597 331.47 289.08 C 335.233 280.515 338.114 271.589 340.07 262.44 C 343.024 249.251 345.161 235.892 346.47 222.44 C 347.28 214.44 347.95 206.52 348.69 198.56 C 348.69 198.09 348.83 197.62 348.93 196.97 L 372.67 203.87 C 372.67 204.58 372.67 205.29 372.67 205.98 C 371.97 215.23 371.25 224.48 370.56 233.72 C 369.99 241.37 369.38 249.03 368.9 256.72 C 368.42 264.41 368.08 271.89 367.68 279.48 C 366.841 291.76 370.782 303.889 378.68 313.33 C 379.89 314.822 381.273 316.164 382.8 317.33 C 385.792 319.791 389.942 320.286 393.43 318.6 C 395.664 317.523 397.759 316.18 399.67 314.6 C 402.945 311.772 405.824 308.516 408.23 304.92 L 409.85 302.65 L 412.06 304.31 C 410.06 311.74 407.39 318.72 402.81 324.83 C 397.668 332.046 389.552 336.567 380.71 337.14 C 376.806 337.531 372.865 337.284 369.04 336.41 C 362.968 334.963 357.732 331.136 354.51 325.79 C 351.622 320.977 349.712 315.642 348.89 310.09 C 347.709 303.793 347.339 297.371 347.79 290.98 C 347.88 290.163 347.735 289.337 347.37 288.6 C 346.98 289.34 346.57 290.08 346.2 290.83 C 340.438 302.721 333.157 313.813 324.54 323.83 C 321.038 327.991 317.003 331.673 312.54 334.78 C 306.83 338.64 300.69 341.03 293.63 340.42 C 290.356 340.141 287.174 339.195 284.28 337.64 C 264.07 326.87 251.42 310.45 247.07 287.94 C 243.26 268.3 245.34 249.07 251.9 230.31 C 258.675 210.404 269.607 192.167 283.97 176.81 C 292.32 167.96 302.05 161.08 313.83 157.46 C 328.62 152.92 341.77 155.77 353.13 166.36 C 358.669 171.7 363.333 177.879 366.95 184.67 C 367.135 185.021 367.285 185.39 367.4 185.77 C 367.407 186.046 367.377 186.322 367.31 186.59 Z" style="fill: rgb(227, 30, 30); fill-rule: nonzero;"></path>
    <path class="cls-1" d="M 792.76 337.02 L 785.01 345.16 C 782.77 344.04 780.58 343.08 778.52 341.9 C 771.888 337.972 766.173 332.67 761.76 326.35 C 754.13 315.87 749.01 304.22 745.34 291.87 C 742.376 281.572 740.403 271.014 739.45 260.34 C 738.414 248.864 738.166 237.33 738.71 225.82 C 739.112 214.793 740.147 203.798 741.81 192.89 C 743.2 183.89 744.81 174.89 746.27 165.89 C 746.37 165.27 746.56 164.65 746.77 163.77 C 748.86 163.93 750.91 164.06 752.95 164.25 C 760.03 164.91 767.1 165.7 773.95 167.65 C 775.707 168.175 777.428 168.817 779.1 169.57 C 779.973 169.967 780.779 170.497 781.49 171.14 C 783.225 172.383 783.542 174.837 782.18 176.48 C 782.1 176.619 782.006 176.749 781.9 176.87 C 776.51 182.34 774.33 189.36 772.42 196.5 C 770.443 204.33 769.022 212.29 768.17 220.32 C 766.666 232.544 765.785 244.837 765.53 257.15 C 765.24 273.52 766.23 289.77 771.08 305.56 C 772.842 311.468 775.392 317.112 778.66 322.34 C 781.971 327.652 786.288 332.265 791.37 335.92 C 791.78 336.26 792.15 336.56 792.76 337.02 Z" style="fill: rgb(227, 30, 30); fill-rule: nonzero;"></path>
    <path class="cls-1" d="M 774.42 106.71 C 787.96 106.71 795.05 112.25 797.42 122.39 C 799.59 131.82 796.85 140.12 790.28 147.06 C 786.71 150.83 781.94 152.29 776.86 152.61 C 767.86 153.18 761.86 149.61 758.25 141.33 C 757.124 138.604 756.221 135.792 755.55 132.92 C 755.304 131.598 755.304 130.242 755.55 128.92 C 756.013 125.44 757.05 122.061 758.62 118.92 C 762.57 110.78 769.12 106.76 774.42 106.71 Z" style="fill: rgb(227, 30, 30); fill-rule: nonzero;"></path>
    <path d="M 616.43 475.19 L 623.7 475.19 L 623.7 508.55 L 624.15 508.62 C 625.75 503.07 627.32 497.5 628.98 491.97 C 630.64 486.44 632.42 480.84 634.18 475.19 L 643.3 475.19 C 643.83 477.14 643.88 528.1 643.36 530.35 L 635.93 530.35 L 635.93 493.27 L 635.5 493.27 L 625.07 530.33 L 616.57 530.33 C 616.07 528.72 615.9 478.35 616.43 475.19 Z" style=""></path>
    <path d="M 595.3 421.39 C 596.89 415.88 598.44 410.39 600.09 404.87 C 601.74 399.35 603.45 394.04 605.15 388.55 L 614.45 388.55 L 614.45 443.65 C 613.25 443.65 612.09 443.77 610.92 443.79 C 609.75 443.81 608.53 443.79 607.02 443.79 C 607.02 440.52 607.02 437.43 606.97 434.35 C 606.92 431.27 606.97 428.11 606.97 424.99 L 606.97 406.43 L 606.54 406.43 L 596.07 443.64 L 587.36 443.64 L 587.36 388.58 C 588.07 388.52 588.69 388.44 589.31 388.43 C 591.05 388.43 592.79 388.43 594.79 388.43 L 594.79 421.43 L 595.3 421.39 Z" style=""></path>
    <path d="M 675.2 530.36 L 666.9 530.36 C 666.81 526.58 666.9 522.85 666.9 519.13 C 666.9 515.41 666.9 511.81 666.9 508.04 C 666.02 507.96 665.4 507.89 664.79 507.86 C 659.1 507.56 658.18 510.33 658.01 514.38 C 657.85 518.13 658.01 521.9 657.92 525.65 C 657.92 527.15 657.64 528.65 657.48 530.28 L 648.83 530.28 C 649.83 525.02 649.22 519.76 649.43 514.52 C 649.479 513.083 649.643 511.651 649.92 510.24 C 650.434 507.261 652.351 504.711 655.07 503.39 C 650.32 500.65 649.5 496.26 649.51 491.55 C 649.474 489.153 649.574 486.756 649.81 484.37 C 650.38 479.45 653.31 476.22 658.14 475.45 C 663.76 474.56 669.44 475.14 675.02 475.02 C 675.51 476.98 675.68 526.44 675.2 530.36 Z M 666.31 500.07 C 666.97 498.23 667.08 485.61 666.49 482.95 C 664.88 482.95 663.21 482.85 661.57 482.95 C 659.891 482.972 658.509 484.276 658.39 485.95 C 658.18 489.437 658.18 492.933 658.39 496.42 C 658.513 498.276 660.03 499.732 661.89 499.78 C 663.36 500.02 664.87 500 666.31 500.07 Z" style=""></path>
    <path d="M 788.14 416.71 C 783.98 414.22 782.76 410.62 782.67 406.5 C 782.61 403.94 782.57 401.37 782.74 398.83 C 783.15 392.99 786.08 389.83 791.8 388.72 C 797.323 388.321 802.867 388.321 808.39 388.72 L 808.39 443.55 C 805.629 443.833 802.85 443.887 800.08 443.71 C 799.85 441.16 799.99 438.71 799.97 436.27 C 799.95 433.83 799.97 431.27 799.97 428.83 L 799.97 421.4 C 798.171 420.99 796.299 421.031 794.52 421.52 C 793.156 421.842 792.082 422.893 791.73 424.25 C 791.395 425.48 791.207 426.746 791.17 428.02 C 791.09 431.38 791.17 434.74 791.11 438.1 C 791.11 439.91 790.77 441.71 790.58 443.61 L 782.27 443.61 C 782.38 439.23 782.49 435.02 782.59 430.8 C 782.59 429.12 782.59 427.44 782.7 425.8 C 782.97 422.01 784.36 418.87 788.14 416.71 Z M 799.8 413.38 L 799.8 396.38 C 799.37 396.3 798.936 396.243 798.5 396.21 C 797.464 396.158 796.426 396.158 795.39 396.21 C 792.91 396.43 791.53 397.6 791.39 400.12 C 791.179 403.143 791.179 406.177 791.39 409.2 C 791.58 411.83 793.19 413.2 795.81 413.35 C 797.07 413.45 798.32 413.38 799.8 413.38 Z" style=""></path>
    <path d="M 744.2 443.79 L 735.71 443.79 L 735.71 420.2 L 725.65 420.2 C 725.47 422.69 725.58 425.2 725.56 427.75 C 725.54 430.3 725.56 433.03 725.56 435.67 L 725.56 443.57 C 722.758 443.845 719.939 443.892 717.13 443.71 L 717.13 388.51 C 719.84 388.36 722.51 388.43 725.45 388.51 C 725.72 396.35 725.45 404.07 725.61 411.74 C 727.36 412.38 732.7 412.49 735.61 411.92 L 735.61 388.61 L 744.22 388.61 L 744.22 443.79 L 744.2 443.79 Z" style=""></path>
    <path d="M 621.12 388.56 L 629.5 388.56 L 629.5 412.13 C 632.95 412.29 636.17 412.27 639.63 412.13 L 639.63 388.58 L 647.9 388.58 C 648.39 390.28 648.59 439.23 648.12 443.34 C 645.34 443.943 642.466 443.984 639.67 443.46 L 639.67 420.2 L 629.6 420.2 C 629.44 427.93 629.6 435.71 629.5 443.62 L 621.12 443.62 L 621.12 388.56 Z" style=""></path>
    <path d="M 549.07 443.94 L 549.07 436.2 L 550.55 435.99 C 552.98 435.67 553.94 434.79 554.16 432.32 C 554.38 429.85 554.48 427.37 554.56 424.9 C 554.94 413.473 555.31 402.047 555.67 390.62 C 555.67 389.99 555.76 389.37 555.81 388.62 L 579.81 388.62 C 580.38 390.25 580.63 439.4 580.03 443.68 C 577.226 443.862 574.414 443.862 571.61 443.68 L 571.61 396.38 L 563.96 396.38 C 563.88 397.03 563.77 397.64 563.75 398.25 C 563.43 408.8 563.18 419.35 562.75 429.9 C 562.667 432.291 562.305 434.664 561.67 436.97 C 560.6 440.8 557.83 442.97 553.92 443.54 C 552.42 443.79 550.84 443.81 549.07 443.94 Z" style=""></path>
    <path d="M 514.85 443.77 C 512.03 443.77 509.56 443.77 507.1 443.77 C 506.1 443.77 505.81 443.02 505.52 442.26 C 504.187 438.68 502.817 435.1 501.41 431.52 C 500.41 428.98 499.48 426.45 498.5 423.91 C 498.28 423.34 498 422.8 497.6 421.91 C 496.19 424.28 494.69 426.16 494.77 428.85 C 494.89 432.85 494.77 436.85 494.77 440.85 C 494.77 441.71 494.77 442.57 494.77 443.6 L 486.37 443.6 L 486.37 388.55 L 494.67 388.55 C 494.92 391.05 494.76 393.55 494.79 396.09 C 494.82 398.63 494.79 401.21 494.79 403.76 C 494.79 406.31 494.79 408.82 494.79 411.27 C 494.938 411.334 495.092 411.381 495.25 411.41 C 495.331 411.407 495.407 411.371 495.46 411.31 C 499.07 403.74 502.67 396.18 506.31 388.53 L 514.76 388.53 C 514.35 389.43 514.03 390.2 513.66 390.95 C 510.39 397.62 507.15 404.31 503.81 410.95 C 503.058 412.254 502.983 413.841 503.61 415.21 C 507 423.57 510.26 431.99 513.61 440.39 C 513.95 441.35 514.3 442.32 514.85 443.77 Z" style=""></path>
    <path d="M 682.87 443.62 L 674.3 443.62 L 672.7 433.87 L 661.97 433.87 L 660.39 443.64 L 652.59 443.64 L 661.38 388.57 L 674.07 388.57 L 682.87 443.62 Z M 667.58 399.62 L 667.01 399.62 L 663.01 426.18 L 671.51 426.18 L 667.58 399.62 Z" style=""></path>
    <path d="M 770.33 443.68 L 768.75 433.87 L 758.01 433.87 L 756.44 443.59 L 748.64 443.59 L 757.43 388.59 L 770.07 388.59 L 778.88 443.66 C 776.034 443.875 773.177 443.882 770.33 443.68 Z M 767.33 426.21 C 767.33 422.58 763.97 401.08 763.09 399.44 L 759.09 426.21 L 767.32 426.21 L 767.33 426.21 Z" style=""></path>
    <path d="M 503.31 493.6 C 503.31 492.23 503.31 491.13 503.31 490.03 C 503.345 488.752 503.298 487.472 503.17 486.2 C 502.77 483.49 501.24 482.2 498.63 482.2 C 496.02 482.2 494.57 483.59 494.21 486.3 C 494.136 487.017 494.109 487.739 494.13 488.46 C 494.13 497.98 494.13 507.5 494.13 517.02 C 494.106 517.819 494.15 518.618 494.26 519.41 C 494.826 522.835 498.888 524.364 501.571 522.161 C 502.373 521.502 502.924 520.587 503.13 519.57 C 503.277 518.705 503.34 517.827 503.32 516.95 C 503.32 514.71 503.32 512.48 503.32 509.95 C 505.94 509.78 508.46 509.88 511.13 509.88 C 511.268 510.414 511.355 510.96 511.39 511.51 C 511.435 514.783 511.282 518.056 510.93 521.31 C 509.99 527.31 505.93 530.67 499.86 530.95 C 498.664 531.012 497.464 530.995 496.27 530.9 C 491.463 530.678 487.384 527.301 486.27 522.62 C 485.875 521.237 485.659 519.808 485.63 518.37 C 485.58 507.97 485.53 497.57 485.63 487.18 C 485.728 485.124 486.16 483.097 486.91 481.18 C 487.956 478.246 490.367 476.007 493.37 475.18 C 496.667 474.118 500.213 474.118 503.51 475.18 C 506.794 476.164 509.378 478.71 510.41 481.98 C 511.502 485.754 511.724 489.727 511.06 493.6 L 503.31 493.6 L 503.31 493.6 Z" style=""></path>
    <path d="M 695.67 422.87 L 695.67 443.54 L 687.32 443.54 L 687.32 388.74 C 687.426 388.62 687.56 388.527 687.71 388.47 C 692.42 388.47 697.14 388.23 701.84 388.47 C 708.01 388.8 712 392.59 712.5 398.73 C 712.853 403.183 712.853 407.657 712.5 412.11 C 712.07 418.92 707.8 422.65 701.07 422.87 C 699.36 422.97 697.7 422.87 695.67 422.87 Z M 695.79 414.97 C 696.51 415.04 696.97 415.13 697.44 415.13 C 698.399 415.183 699.361 415.183 700.32 415.13 C 702.69 414.9 703.85 413.94 704.05 411.53 C 704.29 408.53 704.25 405.47 704.26 402.43 C 704.264 401.313 704.16 400.198 703.95 399.1 C 703.786 397.781 702.801 396.712 701.5 396.44 C 699.625 396.005 697.675 396.005 695.8 396.44 L 695.8 415.01 L 695.79 414.97 Z" style=""></path>
    <path d="M 558.54 506.06 L 564.54 475.18 L 573.37 475.18 C 573.355 475.816 573.298 476.451 573.2 477.08 C 570.173 490.56 567.133 504.033 564.08 517.5 C 563.639 519.364 563.061 521.192 562.35 522.97 C 560.915 527.001 557.295 529.851 553.04 530.3 C 551.16 530.57 549.24 530.5 547.12 530.6 L 547.12 522.87 L 549.53 522.87 C 553.31 522.87 555.11 519.16 554.25 516.21 C 550.53 503.49 547.01 490.71 543.42 477.95 C 543.19 477.12 543 476.28 542.74 475.23 L 551.25 475.23 L 558.54 506.06 Z" style=""></path>
    <path d="M 516.68 388.52 L 525.07 388.52 C 527.73 398.62 530.31 408.72 532.48 419.01 C 533.96 414.09 534.29 409.01 535.43 404.01 C 536.57 399.01 537.55 393.86 538.64 388.62 L 547.4 388.62 C 547.361 389.213 547.291 389.804 547.19 390.39 C 544.183 403.797 541.163 417.197 538.13 430.59 C 537.645 432.695 536.976 434.753 536.13 436.74 C 534.622 440.558 531.113 443.218 527.03 443.64 C 525.039 444.065 522.983 444.096 520.98 443.73 L 520.98 436.48 C 521.98 436.4 522.8 436.36 523.66 436.24 C 527.5 435.72 529.17 433.17 528.12 429.41 C 525.88 421.41 523.63 413.41 521.37 405.41 C 519.943 400.337 518.52 395.26 517.1 390.18 C 516.96 389.75 516.86 389.29 516.68 388.52 Z" style=""></path>
    <path d="M 514.5 475.18 L 541 475.18 L 541 482.87 L 532.07 482.87 L 532.07 530.33 C 531.07 530.38 530.39 530.45 529.69 530.46 C 527.69 530.46 525.69 530.46 523.54 530.46 L 523.54 482.97 L 514.54 482.97 L 514.54 475.19 L 514.5 475.18 Z" style=""></path>
  </g>
</svg>